<svg xmlns="http://www.w3.org/2000/svg" width="801.84" height="595.755" viewBox="0 0 801.84 595.755"><defs><style>.a{fill:#1b1c37;}.b{fill:#25264b;}</style></defs><g transform="translate(0 0)"><g transform="translate(0 0)"><path class="a" d="M0,0H144.722V220.764H0Z" transform="translate(144.722 220.774) rotate(180)"/><rect class="b" width="61.171" height="98.198" transform="translate(144.722 107.037) rotate(180)"/><rect class="b" width="61.171" height="98.198" transform="translate(76.871 107.037) rotate(180)"/><rect class="b" width="61.171" height="98.198" transform="translate(144.722 211.925) rotate(180)"/><rect class="b" width="61.171" height="98.198" transform="translate(76.871 211.925) rotate(180)"/><path class="a" d="M102.812,40.91H46.98V356.755H79.294l-22.55-160.72Z" transform="translate(-46.98 -40.91)"/><path class="b" d="M92.59,48.94l-8.85,36.707-9.009,36.675L56.7,195.651l.011-.181,8.339,76.637,4.17,38.324,3.989,38.335L68.7,310.485l-4.35-38.3-8.69-76.595v-.1l.021-.1,18.369-73.244,9.19-36.622Z" transform="translate(-46.427 -40.399)"/><path class="b" d="M50.142,55.03,50.4,86.706l.149,31.676.128,63.352-.128,63.341L50.4,276.751l-.255,31.676-.266-31.676-.149-31.676-.117-63.341.128-63.352.149-31.676Z" transform="translate(-46.812 -40.011)"/><path class="b" d="M60.424,60.61,58.69,94.275,56.808,127.94l-3.744,67.309h0c.372,12.509.617,25.007.925,37.5l.883,37.5.883,37.5.713,37.515L55.191,307.8l-1.064-37.5L53.064,232.8c-.34-12.509-.755-25.007-1.064-37.5h0l4.127-67.3L58.2,94.349Z" transform="translate(-46.66 -39.656)"/><path class="b" d="M67.587,339.114l-3.659-36.335-3.521-36.356c-2.266-24.241-4.627-48.471-6.807-72.723v-.138l10.349-56.6,5.244-28.272L74.512,80.42l-4.882,28.357L64.662,137.1,54.589,193.785v-.138c2.319,24.241,4.457,48.492,6.69,72.744l3.191,36.377Z" transform="translate(-46.558 -38.395)"/><rect class="b" width="12.604" height="7.361" transform="translate(12.604 159.848) rotate(180)"/><path class="a" d="M130.56,40.91h55.832V356.755H154.078l22.55-160.72Z" transform="translate(-41.659 -40.91)"/><path class="b" d="M139.65,48.94,149,85.53l9.19,36.622L176.559,195.4l.032.1-.011.1-8.69,76.595-4.35,38.3-4.51,38.281,3.989-38.335,4.17-38.324,8.339-76.637.011.181-18.029-73.329L148.5,85.647Z" transform="translate(-41.08 -40.399)"/><path class="b" d="M179.952,55.03l.266,31.676.149,31.676.117,63.352-.117,63.341-.149,31.676-.266,31.676-.255-31.676-.149-31.676-.128-63.341.128-63.352.149-31.676Z" transform="translate(-38.548 -40.011)"/><path class="b" d="M170.12,60.61l2.212,33.644L174.46,127.9l4.042,67.3h0c-.277,12.5-.691,25-1.064,37.5l-1.064,37.494-1.064,37.6-1.244,37.494.713-37.515.883-37.5.883-37.5c.319-12.5.553-25,.925-37.5h0l-3.787-67.309L171.8,94.286Z" transform="translate(-39.14 -39.656)"/><path class="b" d="M163.7,339.115l3.1-36.388,3.191-36.377c2.234-24.252,4.372-48.5,6.69-72.744v.181L166.59,137.1l-4.967-28.336L156.73,80.41l5.318,28.272,5.255,28.283,10.349,56.6v.138c-2.191,24.252-4.542,48.482-6.807,72.723L167.3,302.78Z" transform="translate(-39.993 -38.395)"/><rect class="b" width="12.604" height="7.361" transform="translate(132.118 152.476)"/></g><g transform="translate(678.285 330.788)"><path class="b" d="M336.85,269.18V415.189h88.284V269.18ZM417.093,361.3H344.859V323.289h72.233Zm0-47.067H344.859v-38h72.233Z" transform="translate(-336.85 -185.473)"/><rect class="a" width="35.292" height="145.999" transform="translate(88.263 83.707)"/><rect class="a" width="17.168" height="38.005" transform="translate(8.009 90.759)"/><path class="a" d="M417.15,400.563H344.31v-37.3h72.84ZM345.374,399.5h70.712V364.324H345.374Z" transform="translate(-336.375 -179.484)"/><path class="a" d="M0,0H14.253V7.212H0Z" transform="translate(34.218 194.498)"/><path class="a" d="M387.807,380.55H372.48v-7.19h15.327Zm-14.264-1.064h13.2v-5.063h-13.2Z" transform="translate(-334.582 -178.841)"/><path class="a" d="M0,0H17.168V38H0Z" transform="translate(8.009 137.826)"/><path class="a" d="M418.979,211.653c10.1,9.892,11.8,25.188,9.669,38.59-.053.308-.521.223-.521-.064,0-3.053.085-6.074.074-9.084l-.149-.4a20.337,20.337,0,0,1-6.563-7.052c-1.691-3.319-2.351-7.063-3.648-10.53-.117-.33.234-.234.468-.064,6.148,4.531,8.105,9.413,9.871,15.955a53.91,53.91,0,0,0-1.064-10.147c-1.33-6.18-3.957-12.317-8.392-16.9a.2.2,0,1,1,.255-.3Z" transform="translate(-331.695 -189.139)"/><path class="b" d="M417.668,213.277c-1.734.064-2.819,2.84-4.18,3.648a1.3,1.3,0,0,1-1.915-.3c-1.34-1.872.5-4.191,2.234-5.478-1.245.511-2.266,1.4-3.606,1.659a1.266,1.266,0,0,1-1.627-.979c-.585-2.553,2.617-3.691,4.818-3.744-1.064-.745-4.127-2.755-2.5-3.744s5.223,1.883,6.382,2.829c1.723,1.393,3.776,3.478,3.85,5.659C421.232,215.383,419.009,213.809,417.668,213.277Z" transform="translate(-332.288 -189.614)"/><path class="b" d="M418.031,213.562c-2.223-1.01-6.5.447-6.861-.394-.734-1.713,2.68-2.883,4.521-3.117-1.7-.457-4.946-1.191-4.85-2.819.128-2,4.989-.287,7.446,1.606,3.106,2.372,3.085,4.669,2.574,5.127C420.158,214.594,418.392,213.733,418.031,213.562Z" transform="translate(-332.14 -189.474)"/><path class="a" d="M441.235,210.733c-10.466,9.5-12.764,24.72-11.126,38.2,0,.308.511.245.521,0,.117-3.053.138-6.074.266-9.084.064-.138.106-.266.17-.4a20.209,20.209,0,0,0,6.829-6.8c1.808-3.255,2.617-6.967,4.042-10.381.128-.33-.234-.245-.468-.074-6.307,4.255-8.456,9.094-10.466,15.54a53.851,53.851,0,0,1,1.457-10.1c1.564-6.127,4.414-12.158,9.031-16.572C441.66,210.84,441.415,210.563,441.235,210.733Z" transform="translate(-330.943 -189.198)"/><path class="b" d="M442.486,212.413c1.734.128,2.723,2.936,4.042,3.8a1.287,1.287,0,0,0,1.925-.223c1.415-1.819-.33-4.255-2.021-5.563,1.223.564,2.212,1.489,3.542,1.8a1.255,1.255,0,0,0,1.659-.915c.681-2.532-2.468-3.787-4.669-3.925,1.064-.691,4.255-2.6,2.638-3.638s-5.318,1.681-6.5,2.585c-1.766,1.33-3.893,3.329-4.053,5.51C438.849,214.37,441.125,212.892,442.486,212.413Z" transform="translate(-330.344 -189.654)"/><path class="b" d="M441.981,212.679c2.255-.925,6.467.691,6.861-.138.8-1.681-2.563-2.978-4.393-3.276,1.712-.394,4.989-1,4.946-2.638,0-2.01-4.967-.479-7.446,1.319-3.191,2.255-3.255,4.552-2.766,5.031C439.811,213.626,441.6,212.839,441.981,212.679Z" transform="translate(-330.349 -189.516)"/><path class="a" d="M430.96,236.438a103.324,103.324,0,0,1-3.244,15.03.374.374,0,0,1-.734-.149c.681-4.638,1.936-9.179,2.627-13.828a69.425,69.425,0,0,0,.851-14.147c-.447-7.8-2.563-16.093-7.648-22.2-.117-.149.117-.351.234-.213,10.19,11.881,8.573,26.443,8.563,27.751,1.447-4.914,2.925-10.552,8.382-15.561.234-.223.425-.117.383.255-.979,9.116-3.51,13.881-8.8,18.763C431.374,233.587,431.194,235.045,430.96,236.438Z" transform="translate(-331.379 -189.821)"/><path class="b" d="M423.2,203.169c-1.829-.808-4.361,1.521-6.18,1.681a1.489,1.489,0,0,1-1.83-1.276c-.457-2.617,2.617-4.084,5.063-4.563-1.542-.085-3.053.319-4.563-.085a1.457,1.457,0,0,1-1.2-1.829c.681-2.946,4.574-2.51,6.882-1.468-.734-1.3-2.893-4.925-.713-5.138s4.478,4.584,5.212,6.159c1.064,2.308,2.127,5.51,1.149,7.807C425.842,207.147,424.321,204.4,423.2,203.169Z" transform="translate(-331.91 -190.484)"/><path class="b" d="M423.414,203.708c-1.8-2.127-6.967-2.808-6.914-3.861.1-2.127,4.255-1.649,6.254-.957-1.532-1.33-4.531-3.723-3.606-5.318,1.127-2.01,5.318,2.223,6.914,5.414,2.021,4.031.851,6.382.085,6.616C425.063,205.846,423.68,204.07,423.414,203.708Z" transform="translate(-331.779 -190.32)"/><path class="b" d="M438.148,236.9l4.489,34.335H415.29c.564-3.042,5.659-34.378,5.659-34.378Z" transform="translate(-331.856 -187.531)"/></g><g transform="translate(189.985 552.314)"><path class="a" d="M473.561,440.53c0,12-94.432,21.72-210.935,21.72S51.69,452.528,51.69,440.53s94.432-21.72,210.935-21.72S473.561,428.585,473.561,440.53Z" transform="translate(-51.69 -418.81)"/></g></g></svg>